<mxfile host="app.diagrams.net" modified="2021-03-23T07:01:43.834Z" agent="5.0 (Macintosh; Intel Mac OS X 10_12_6) AppleWebKit/605.1.15 (KHTML, like Gecko) Version/12.1.2 Safari/605.1.15" etag="8hq0s_nmtTk859arHIcf" version="14.4.6" type="github">
  <diagram id="UxxI-hWFq0lO42YB43vi" name="Page-1">
    <mxGraphModel dx="998" dy="484" grid="1" gridSize="10" guides="1" tooltips="1" connect="1" arrows="1" fold="1" page="1" pageScale="1" pageWidth="827" pageHeight="1169" math="0" shadow="0">
      <root>
        <mxCell id="0" />
        <mxCell id="1" parent="0" />
        <mxCell id="Wn6m0R2NWf41lUpw9Ejd-18" value="" style="rounded=0;whiteSpace=wrap;html=1;shadow=1;" vertex="1" parent="1">
          <mxGeometry x="250" y="170" width="150" height="80" as="geometry" />
        </mxCell>
        <mxCell id="Wn6m0R2NWf41lUpw9Ejd-1" value="银行系统" style="rounded=0;whiteSpace=wrap;html=1;" vertex="1" parent="1">
          <mxGeometry x="80" y="180" width="110" height="30" as="geometry" />
        </mxCell>
        <mxCell id="Wn6m0R2NWf41lUpw9Ejd-4" value="文件存储于共享服务" style="rounded=0;whiteSpace=wrap;html=1;" vertex="1" parent="1">
          <mxGeometry x="270" y="180" width="110" height="30" as="geometry" />
        </mxCell>
        <mxCell id="Wn6m0R2NWf41lUpw9Ejd-6" value="贸易金融平台" style="rounded=0;whiteSpace=wrap;html=1;" vertex="1" parent="1">
          <mxGeometry x="460" y="180" width="110" height="30" as="geometry" />
        </mxCell>
        <mxCell id="Wn6m0R2NWf41lUpw9Ejd-15" style="edgeStyle=orthogonalEdgeStyle;rounded=0;orthogonalLoop=1;jettySize=auto;html=1;exitX=1;exitY=0.5;exitDx=0;exitDy=0;entryX=0.5;entryY=0;entryDx=0;entryDy=0;" edge="1" parent="1" source="Wn6m0R2NWf41lUpw9Ejd-8" target="Wn6m0R2NWf41lUpw9Ejd-14">
          <mxGeometry relative="1" as="geometry" />
        </mxCell>
        <mxCell id="Wn6m0R2NWf41lUpw9Ejd-8" value="隐私信息存储于共享服务" style="rounded=0;whiteSpace=wrap;html=1;" vertex="1" parent="1">
          <mxGeometry x="270" y="110" width="110" height="30" as="geometry" />
        </mxCell>
        <mxCell id="Wn6m0R2NWf41lUpw9Ejd-10" value="" style="endArrow=classic;startArrow=classic;html=1;exitX=1;exitY=0.5;exitDx=0;exitDy=0;entryX=0;entryY=0.5;entryDx=0;entryDy=0;" edge="1" parent="1" source="Wn6m0R2NWf41lUpw9Ejd-1" target="Wn6m0R2NWf41lUpw9Ejd-4">
          <mxGeometry width="50" height="50" relative="1" as="geometry">
            <mxPoint x="390" y="280" as="sourcePoint" />
            <mxPoint x="440" y="230" as="targetPoint" />
          </mxGeometry>
        </mxCell>
        <mxCell id="Wn6m0R2NWf41lUpw9Ejd-11" value="" style="endArrow=classic;startArrow=classic;html=1;entryX=0;entryY=0.5;entryDx=0;entryDy=0;exitX=1;exitY=0.5;exitDx=0;exitDy=0;" edge="1" parent="1" source="Wn6m0R2NWf41lUpw9Ejd-4" target="Wn6m0R2NWf41lUpw9Ejd-6">
          <mxGeometry width="50" height="50" relative="1" as="geometry">
            <mxPoint x="370" y="300" as="sourcePoint" />
            <mxPoint x="420" y="250" as="targetPoint" />
          </mxGeometry>
        </mxCell>
        <mxCell id="Wn6m0R2NWf41lUpw9Ejd-12" value="" style="endArrow=classic;startArrow=classic;html=1;entryX=0.5;entryY=1;entryDx=0;entryDy=0;exitX=0.5;exitY=0;exitDx=0;exitDy=0;" edge="1" parent="1" source="Wn6m0R2NWf41lUpw9Ejd-4" target="Wn6m0R2NWf41lUpw9Ejd-8">
          <mxGeometry width="50" height="50" relative="1" as="geometry">
            <mxPoint x="310" y="170" as="sourcePoint" />
            <mxPoint x="360" y="120" as="targetPoint" />
          </mxGeometry>
        </mxCell>
        <mxCell id="Wn6m0R2NWf41lUpw9Ejd-16" style="edgeStyle=orthogonalEdgeStyle;rounded=0;orthogonalLoop=1;jettySize=auto;html=1;exitX=0;exitY=0.5;exitDx=0;exitDy=0;entryX=0.75;entryY=0;entryDx=0;entryDy=0;" edge="1" parent="1" source="Wn6m0R2NWf41lUpw9Ejd-14" target="Wn6m0R2NWf41lUpw9Ejd-4">
          <mxGeometry relative="1" as="geometry">
            <Array as="points">
              <mxPoint x="480" y="150" />
              <mxPoint x="353" y="150" />
            </Array>
          </mxGeometry>
        </mxCell>
        <mxCell id="Wn6m0R2NWf41lUpw9Ejd-14" value="智能合约" style="rounded=1;whiteSpace=wrap;html=1;" vertex="1" parent="1">
          <mxGeometry x="480" y="160" width="70" height="20" as="geometry" />
        </mxCell>
        <mxCell id="Wn6m0R2NWf41lUpw9Ejd-17" value="文件存储组件" style="rounded=1;whiteSpace=wrap;html=1;" vertex="1" parent="1">
          <mxGeometry x="285" y="220" width="80" height="20" as="geometry" />
        </mxCell>
      </root>
    </mxGraphModel>
  </diagram>
</mxfile>
